<?xml version="1.0" encoding="UTF-8" standalone="no"?>
<!-- Created with Inkscape (http://www.inkscape.org/) -->

<svg
   xmlns:dc="http://purl.org/dc/elements/1.1/"
   xmlns:cc="http://creativecommons.org/ns#"
   xmlns:rdf="http://www.w3.org/1999/02/22-rdf-syntax-ns#"
   xmlns:svg="http://www.w3.org/2000/svg"
   xmlns="http://www.w3.org/2000/svg"
   xmlns:sodipodi="http://sodipodi.sourceforge.net/DTD/sodipodi-0.dtd"
   xmlns:inkscape="http://www.inkscape.org/namespaces/inkscape"
   width="744.09003"
   height="884.50989"
   id="svg2"
   version="1.1"
   inkscape:version="0.92.2 (5c3e80d, 2017-08-06)"
   sodipodi:docname="Bornholm blank map.svg">
  <defs
     id="defs4" />
  <sodipodi:namedview
     id="base"
     pagecolor="#ffffff"
     bordercolor="#666666"
     borderopacity="1.0"
     inkscape:pageopacity="0.0"
     inkscape:pageshadow="2"
     inkscape:zoom="0.35355339"
     inkscape:cx="726.02318"
     inkscape:cy="137.79466"
     inkscape:document-units="px"
     inkscape:current-layer="layer1"
     showgrid="false"
     fit-margin-top="0"
     fit-margin-left="0"
     fit-margin-right="0"
     fit-margin-bottom="0"
     inkscape:window-width="1024"
     inkscape:window-height="706"
     inkscape:window-x="-8"
     inkscape:window-y="-8"
     inkscape:window-maximized="1"
     borderlayer="false"
     gridtolerance="10"
     inkscape:showpageshadow="true">
    <inkscape:grid
       type="xygrid"
       id="grid36"
       spacingx="0.5"
       spacingy="0.5" />
  </sodipodi:namedview>
  <metadata
     id="metadata7">
    <rdf:RDF>
      <cc:Work
         rdf:about="">
        <dc:format>image/svg+xml</dc:format>
        <dc:type
           rdf:resource="http://purl.org/dc/dcmitype/StillImage" />
        <dc:title>Bornholm municipality</dc:title>
        <dc:date>2011-10-15</dc:date>
        <dc:creator>
          <cc:Agent>
            <dc:title>Erik Frohne</dc:title>
          </cc:Agent>
        </dc:creator>
        <dc:description>Bounding box: (55째 21' N / 14째 39' E) - (54째 58' N / 15째 13' E)</dc:description>
      </cc:Work>
    </rdf:RDF>
  </metadata>
  <g
     inkscape:groupmode="layer"
     id="layer1"
     inkscape:label="map"
     style="display:inline">
    <path
       id="waterbody"
       style="fill:#c6ecff;fill-opacity:1;fill-rule:evenodd;stroke:none"
       d="m 0.32840051,0.28389019 c 0,0 737.54546949,0.84877091 743.54771949,0.22207521 -0.14834,5.8097812 0.2923,876.5273946 0.2923,884.2300446 C 736.72848,885.65992 7.0294965,884.55143 0.59966003,884.55143 0.7424098,875.6688 0.72323749,8.1562839 0.32840051,0.28389019 Z M 485.88376,399.72996 c -0.68705,-3.42115 -4.17278,-6.60714 -7.22874,-6.60714 -1.22267,0 -1.62678,-0.40928 -1.62678,-1.64757 0,-1.70848 -5.59751,-8.35243 -7.0369,-8.35243 -0.43617,0 -0.98345,-0.72322 -1.2162,-1.60715 -0.23275,-0.88392 -2.17032,-2.8282 -4.30571,-4.32059 -2.1354,-1.4924 -4.44216,-3.57411 -5.12615,-4.62603 -1.73501,-2.66831 -5.229,-5.71306 -7.11129,-6.19697 -1.71122,-0.43993 -5.20375,-3.60128 -5.20375,-4.7103 0,-0.375 -0.44838,-0.68182 -0.9964,-0.68182 -0.60557,0 -1.15006,-1.05065 -1.38812,-2.67857 -0.7077,-4.83925 -1.34088,-7.32143 -1.86761,-7.32143 -0.28522,0 -0.88469,-0.80357 -1.33219,-1.78571 -0.4475,-0.98215 -1.29654,-1.78572 -1.88676,-1.78572 -1.09224,0 -1.44093,-0.99108 -2.13608,-6.07143 -0.21502,-1.57143 -0.44494,-3.22828 -0.51094,-3.6819 -0.066,-0.45361 -0.46821,-0.69456 -0.89381,-0.53543 -1.06412,0.39787 -2.55952,-3.06385 -2.55952,-5.92507 0,-1.61945 -0.33546,-2.3576 -1.07143,-2.3576 -0.58929,0 -1.07143,-0.47563 -1.07143,-1.05697 0,-2.79457 -2.30468,-6.61275 -4.67328,-7.74226 -1.35827,-0.64771 -2.46958,-1.50428 -2.46958,-1.9035 0,-0.39921 -0.79348,-0.72584 -1.7633,-0.72584 -1.27391,0 -1.64918,-0.29736 -1.35215,-1.07143 0.26035,-0.67845 -0.01,-1.07143 -0.7367,-1.07143 -0.65003,0 -1.14785,-0.58642 -1.14785,-1.35215 0,-1.23924 -1.28751,-2.21927 -2.91556,-2.21927 -0.36072,0 -0.65586,0.63673 -0.65586,1.41496 0,1.63377 -2.534,2.52168 -5.54892,1.94433 -2.11137,-0.40432 -8.02251,1.89234 -8.02251,3.117 0,1.97656 -3.85285,4.49269 -8.03572,5.24777 -1.47321,0.26594 -2.67857,0.77582 -2.67857,1.13308 0,0.35726 -1.0499,0.84651 -2.33311,1.08725 -4.48797,0.84194 -15.12208,-4.14066 -16.828,-7.88474 -0.44982,-0.98724 -1.63405,-2.16687 -2.63162,-2.62139 -0.99758,-0.45453 -2.5073,-1.97658 -3.35494,-3.38234 -1.62244,-2.69073 -5.42694,-6.39766 -6.63804,-6.46781 -0.39286,-0.0228 -1.47124,-0.83939 -2.3964,-1.81474 -0.92517,-0.97535 -2.14183,-1.77337 -2.7037,-1.77337 -0.56188,0 -1.85008,-0.54285 -2.86268,-1.20633 -1.08674,-0.71206 -2.96504,-1.14001 -4.58425,-1.04447 -1.50874,0.089 -3.32072,-0.12403 -4.02664,-0.47346 -1.67167,-0.82747 -6.55025,-3.03455 -12.3549,-5.58939 -2.55358,-1.12393 -4.8999,-2.44528 -5.21407,-2.93635 -0.31416,-0.49108 -1.04174,-0.89286 -1.61683,-0.89286 -0.5751,0 -1.60377,-0.29489 -2.28594,-0.65532 -4.35132,-2.29902 -8.83001,-4.34468 -9.51207,-4.34468 -2.37076,0 -5.62194,-2.44339 -6.6414,-4.99127 -0.60262,-1.50609 -1.93689,-3.57957 -2.96507,-4.60774 -1.48375,-1.48376 -1.77545,-2.29708 -1.41402,-3.94266 0.36079,-1.64265 0.14913,-2.23718 -1.01905,-2.86237 -0.81093,-0.43399 -1.47441,-0.55563 -1.47441,-0.27028 0,0.28533 -0.47192,-0.10515 -1.04872,-0.86773 -0.57678,-0.76259 -1.05892,-1.98078 -1.07142,-2.70709 -0.0411,-2.38766 -6.45345,-7.18194 -10.5583,-7.89401 -0.49099,-0.0852 -1.33833,-0.76428 -1.88297,-1.50912 -0.77148,-1.05506 -1.98776,-1.38067 -5.50538,-1.47385 -2.61988,-0.0694 -4.62801,-0.45827 -4.78407,-0.92645 -0.14792,-0.44377 -1.55525,-1.01254 -3.12739,-1.26393 -1.57214,-0.2514 -3.02601,-0.89374 -3.23081,-1.42744 -0.20479,-0.53369 -0.80113,-0.97035 -1.32521,-0.97035 -1.23692,0 -1.796,-0.95868 -2.13884,-3.66758 -0.31834,-2.51539 -1.48293,-4.18956 -2.91435,-4.18956 -0.54118,0 -0.98397,-0.44466 -0.98397,-0.98812 0,-1.17759 -2.08468,-1.87512 -6.31783,-2.11393 -2.04818,-0.11555 -3.33544,-0.58947 -3.78549,-1.39366 -0.37508,-0.67022 -1.15265,-1.21858 -1.72796,-1.21858 -0.5753,0 -2.02642,-1.04464 -3.22472,-2.32142 -1.60212,-1.70707 -1.97088,-1.8961 -1.39337,-0.71429 1.06515,2.17974 0.29137,2.0295 -4.289,-0.83275 -8.34048,-5.21193 -9.67116,-5.97665 -11.22592,-6.45137 -2.10572,-0.64295 -2.29567,-3.96588 -0.2267,-3.96588 1.57129,0 2.70882,-2.62503 1.61257,-3.72127 -0.64178,-0.64179 -3.13484,-1.09958 -6.71548,-1.23313 -1.29661,-0.0484 -3.14684,-5.18318 -2.33877,-6.49065 0.2372,-0.38379 -0.18851,-0.69781 -0.946,-0.69781 -1.91392,0 -2.62835,-4.5084 -1.17583,-7.42004 0.58331,-1.16926 0.77787,-2.30844 0.43237,-2.53151 -0.3455,-0.22308 -0.85242,-1.20916 -1.12649,-2.1913 -0.85344,-3.05833 -2.03849,-5 -3.05164,-5 -0.53523,0 -1.15901,-0.5625 -1.38617,-1.25 -0.22717,-0.6875 -1.37941,-3.25893 -2.56054,-5.71429 -1.50874,-3.13639 -2.54776,-4.46429 -3.49313,-4.46429 -0.94309,0 -1.34561,-0.51131 -1.34561,-1.70929 0,-0.94011 -0.48725,-1.89626 -1.08276,-2.12478 -0.82648,-0.31715 -0.97688,-1.07765 -0.63543,-3.21297 0.35716,-2.23353 0.12496,-3.23351 -1.15183,-4.96046 -0.91003,-1.23089 -2.02134,-2.00097 -2.57886,-1.78703 -0.5796,0.22242 -0.9797,-0.0928 -0.9797,-0.7719 0,-0.63132 -0.41445,-1.14785 -0.92101,-1.14785 -0.53126,0 -0.9091,-0.81572 -0.89286,-1.92759 0.024,-1.64511 -0.36436,-2.02186 -2.65041,-2.57095 -1.47322,-0.35385 -2.67857,-0.93288 -2.67857,-1.2867 0,-0.35383 -0.46194,-0.64333 -1.02652,-0.64333 -0.76829,0 -0.92749,-0.6103 -0.63284,-2.42602 0.32675,-2.0135 0.14313,-2.50553 -1.07988,-2.8937 -0.94608,-0.30028 -1.32406,-0.85733 -1.0559,-1.55615 0.29751,-0.7753 0.0301,-1.02165 -0.92931,-0.85629 -0.74084,0.12769 -1.34698,-0.10766 -1.6887,-1.06566 -0.53987,0.0225 -0.77598,-0.0134 -1.56675,-0.72906 -0.53877,-0.48758 -0.93178,-1.14355 -0.87335,-1.45771 0.0584,-0.31416 -0.29153,-0.50442 -0.77767,-0.4228 -0.52419,0.088 -0.88388,-0.1689 -0.88388,-0.63134 0,-0.83585 -0.35189,-0.93193 -2.90205,-0.79242 -1.3377,0.0732 -1.73039,-0.14975 -2.13407,-1.21152 -0.27209,-0.71566 -0.80478,-1.3012 -1.18376,-1.3012 -0.37897,0 -0.94211,-0.55541 -1.2514,-1.23425 -0.5028,-1.10352 -0.73424,-1.18497 -2.18484,-0.76894 -1.69199,0.48525 -3.98094,0.17427 -3.98094,-0.54087 0,-0.22783 -0.35744,-0.77168 -0.7943,-1.20855 -0.70691,-0.7069 -0.71254,-0.95819 -0.0512,-2.28389 0.4909,-0.98403 0.55997,-1.55064 0.2035,-1.66946 -0.34305,-0.11435 -0.21164,-0.81339 0.36075,-1.91907 1.31847,-2.54684 1.46708,-4.7896 0.42297,-6.38312 -0.49069,-0.74889 -0.83409,-1.715 -0.76311,-2.14691 0.071,-0.43191 -0.55502,-1.23987 -1.3911,-1.79545 -0.83608,-0.55559 -1.53041,-1.23744 -1.54297,-1.51523 -0.0126,-0.27779 -0.85416,-1.03619 -1.87022,-1.68531 -1.50699,-0.96276 -1.94512,-1.05567 -2.37774,-0.50421 -0.29168,0.37182 -1.38265,1.12507 -2.42437,1.6739 -1.30388,0.68695 -1.89404,1.34079 -1.89404,2.09842 0,0.84641 -0.22983,1.04044 -0.99532,0.84027 -0.66827,-0.17476 -1.59264,0.29715 -2.81327,1.43624 -0.99987,0.93309 -2.02533,1.64104 -2.2788,1.57322 -0.25346,-0.0678 -0.60831,0.50039 -0.78855,1.26269 -0.18023,0.7623 -0.78119,1.88582 -1.33546,2.49672 -0.59392,0.65459 -0.87696,1.4516 -0.68925,1.94078 0.21885,0.57031 -0.007,0.91522 -0.72228,1.10223 -0.6179,0.16158 -0.93303,0.55304 -0.77555,0.96341 0.14589,0.38018 0.0575,0.69124 -0.19641,0.69124 -0.25392,0 -0.76081,0.62414 -1.12643,1.38698 -0.74352,1.5513 -3.62976,3.14423 -5.03244,2.77742 -1.34431,-0.35155 -5.77855,4.61813 -6.42022,7.19547 -0.48568,1.95073 -0.41966,5.33092 0.20647,10.57204 0.32809,2.74627 0.81882,3.88676 2.58696,6.0123 0.85264,1.02498 1.18765,2.05791 1.18765,3.66181 0,1.44643 0.22259,2.23681 0.63135,2.24182 0.39099,0.005 0.43907,0.149 0.12627,0.37881 -0.27779,0.20409 -0.54699,1.24125 -0.59821,2.30481 -0.0512,1.06356 -0.52879,2.76819 -1.06128,3.78807 -0.53248,1.01988 -1.36614,2.60624 -1.85257,3.52524 -0.82166,1.55234 -0.82544,1.73608 -0.0533,2.58925 0.68526,0.75719 0.7076,0.96572 0.12734,1.18839 -0.97756,0.37513 -1.50036,5.18278 -0.7095,6.52453 0.4828,0.81911 0.47872,1.08663 -0.0194,1.26699 -0.34724,0.12575 -0.63857,0.60744 -0.6474,1.07043 -0.009,0.46299 -0.34977,1.28298 -0.75762,1.82221 -0.40785,0.53923 -0.74155,1.38641 -0.74155,1.88263 0,0.49621 -1.37995,3.15743 -3.06655,5.91382 -1.68661,2.75639 -3.18574,5.77304 -3.33141,6.70367 -0.14568,0.93063 -0.57669,2.26027 -0.9578,2.95475 -0.38111,0.69448 -1.0274,2.39911 -1.43619,3.78807 -2.76615,9.39858 -4.30022,12.7384 -7.88787,17.17259 -1.5733,1.94455 -2.95283,3.77055 -3.06562,4.0578 -0.11279,0.28725 -1.21676,2.01972 -2.45325,3.84994 -2.12509,3.14549 -2.32716,3.30503 -3.69075,2.91396 -0.79341,-0.22755 -1.77046,-0.28789 -2.17124,-0.1341 -0.50508,0.19382 -0.72867,-0.0779 -0.72867,-0.88559 0,-1.58725 -0.79856,-0.62328 -1.18128,1.42599 -0.23953,1.28256 -0.0993,1.7415 0.65574,2.14557 0.71254,0.38134 1.15578,0.31872 1.71708,-0.24258 0.80804,-0.80805 1.83892,-1.01206 1.83892,-0.36393 0,0.21599 -0.32977,0.86351 -0.73282,1.43895 -0.40305,0.57543 -1.45431,2.38746 -2.33614,4.02672 -0.88182,1.63926 -2.14304,3.39718 -2.80271,3.90649 -0.65967,0.5093 -1.199399,1.16574 -1.199399,1.45874 0,0.29301 -0.909138,1.51904 -2.020305,2.72451 -1.111168,1.20547 -2.020306,2.62359 -2.020306,3.15136 0,0.52778 -0.35673,1.25566 -0.792727,1.61751 -0.436002,0.36184 -0.686752,1.06317 -0.55722,1.5585 0.129532,0.49532 -0.08195,1.16406 -0.469958,1.48609 -0.427441,0.35476 -0.705451,1.5563 -0.705451,3.04902 0,1.35495 -0.197747,2.46354 -0.439436,2.46354 -0.241689,0 -0.724588,1.01846 -1.073105,2.26325 -0.348518,1.24478 -0.946266,2.52268 -1.328331,2.83976 -0.382065,0.31708 -0.694662,0.89717 -0.694662,1.28908 0,0.39191 -0.56821,1.83387 -1.26269,3.20436 -0.69448,1.37049 -1.262691,2.92609 -1.262691,3.4569 0,0.5308 -0.326315,1.23591 -0.725148,1.56692 -0.398833,0.331 -0.87312,1.27553 -1.053978,2.09895 -0.180853,0.82343 -0.990955,2.22208 -1.800228,3.10812 -0.809274,0.88605 -1.471409,1.9084 -1.471409,2.27189 0,0.3635 -0.336507,0.79003 -0.747795,0.94786 -0.411289,0.15783 -0.73873,0.77573 -0.727644,1.37311 0.0532,2.86651 -0.735057,9.38273 -1.353341,11.18768 -0.380626,1.11117 -0.695359,2.73115 -0.699405,3.59996 -0.004,0.86881 -0.362887,1.87472 -0.797434,2.23536 -0.494197,0.41015 -0.68204,1.08618 -0.501586,1.80516 0.37666,1.50075 -1.110209,4.58377 -2.36946,4.91308 -0.542406,0.14184 -0.876075,0.44365 -0.741482,0.67069 0.134588,0.22704 0.04323,1.86064 -0.20298,3.63021 -0.269675,1.93812 -0.258119,4.39451 0.02909,6.1778 0.515158,3.19882 -0.184772,6.66923 -2.740049,13.58577 -2.61332,7.07367 -3.872743,12.04318 -3.31582,13.08379 0.291974,0.54556 0.530865,2.26493 0.530865,3.82083 0,1.7156 0.310925,3.30342 0.790071,4.03469 1.179509,1.80016 1.548372,6.45217 0.57561,7.25948 -0.855276,0.70982 -3.024493,1.26778 -4.774946,1.22819 -0.693323,-0.0157 -1.136421,0.27486 -1.136421,0.74514 0,1.04491 1.989576,4.19436 3.435761,5.43871 1.057837,0.91021 1.141745,1.28216 0.826072,3.66181 -0.23034,1.73623 -0.589959,2.64869 -1.043927,2.64869 -0.484075,0 -0.692545,0.68416 -0.692545,2.27284 0,1.91309 0.155175,2.27284 0.980343,2.27284 1.465559,0 1.705521,0.73923 2.12627,6.55014 0.358392,4.94972 0.913294,7.36243 2.268828,9.86484 0.528855,0.97631 1.185419,4.91631 1.514986,9.09138 0.08771,1.11116 0.359978,3.27036 0.605031,4.79822 0.68897,4.29557 0.133022,11.88657 -0.924764,12.62691 -0.198455,0.13889 -0.730795,1.38896 -1.182985,2.77792 -0.750806,2.30622 -0.754619,2.91986 -0.04394,7.07106 1.545938,9.02993 1.649524,10.64241 0.944503,14.70233 -0.445381,2.56478 -0.512506,4.21032 -0.195878,4.80194 0.335678,0.62723 0.234769,1.41787 -0.332906,2.60829 -0.77007,1.61486 -0.756544,1.8284 0.247416,3.90636 1.088803,2.25357 1.597304,5.44284 2.696572,16.91257 1.140735,11.90241 0.271277,24.49771 -1.960817,28.40518 -0.672731,1.17769 -1.807324,3.30431 -2.521326,4.72585 -0.714001,1.42154 -2.410461,3.81287 -3.769914,5.31401 -3.130498,3.45679 -3.165753,4.58534 -0.339325,10.86237 1.911208,4.24451 2.133881,5.14466 2.146574,8.67792 0.01278,3.5521 -0.10292,4.03056 -1.169121,4.83575 -1.119986,0.84575 -1.148846,1.00854 -0.539502,3.04233 0.471969,1.57528 0.492348,2.24234 0.07636,2.49942 -0.312077,0.19289 -0.793354,1.75362 -1.069494,3.46831 -0.615602,3.82257 -1.127629,4.85595 -3.761682,7.5921 -1.55661,1.61695 -2.451772,2.14658 -3.628069,2.14658 -0.858872,0 -1.809931,0.24834 -2.113456,0.55184 -0.399107,0.39911 -0.856105,0.38906 -1.650948,-0.0364 -1.082596,-0.57938 -1.072403,-0.60852 0.679196,-1.94086 0.978055,-0.74393 1.894496,-1.63362 2.036538,-1.97712 0.142043,-0.34345 -0.839462,0.22476 -2.181116,1.26269 -1.341654,1.03798 -2.321002,2.09278 -2.176328,2.34406 0.144669,0.25127 0.0025,0.29587 -0.315835,0.0991 -0.94323,-0.58295 -5.005376,2.58185 -6.426565,5.00693 -1.433593,2.44628 -2.957584,8.08263 -2.420425,8.95177 0.191029,0.30905 0.09819,0.39517 -0.216464,0.20066 -0.341919,-0.21127 -0.80906,0.57352 -1.231252,2.06854 l -0.680289,2.40912 -0.329379,0.92011 -0.442261,1.60714 c -0.429813,1.56191 -0.411062,1.56812 0.666151,0.22063 0.609627,-0.76259 1.108414,-1.91438 1.108414,-2.55953 0,-1.6096 0.559862,-2.03202 2.14408,-1.61774 0.74089,0.19375 1.482076,1.04272 1.647081,1.8866 0.230475,1.17872 0.322552,1.06136 0.39728,-0.50638 0.07828,-1.6422 0.341367,-1.94266 1.347273,-1.53861 1.524304,0.61226 2.878691,0.9571 2.142857,0.54559 -0.717532,-0.40129 -0.688119,-5.71634 0.0341,-6.1627 0.952711,-0.58881 2.040933,0.51701 2.548095,2.58929 0.464654,1.89859 1.882086,2.78243 1.882086,1.17358 0,-0.43678 0.520115,-0.59112 1.161963,-0.34482 0.63908,0.24524 1.578178,0.10046 2.086885,-0.32173 2.207655,-1.83219 6.474163,3.85188 4.592803,6.11878 -0.798577,0.96222 -1.039473,0.96586 -2.072177,0.0313 -2.074878,-1.87773 -6.808239,-0.55851 -7.296996,2.03373 -0.318411,1.68876 -2.043907,2.39199 -2.043907,0.833 0,-0.62203 -0.29514,-1.13096 -0.655866,-1.13096 -0.360726,0 -1.244654,-0.223 -1.964286,-0.49556 -1.018652,-0.38582 -0.857426,0.0991 0.728,2.18977 1.120031,1.47693 1.895367,2.82639 1.72297,2.99879 -0.172397,0.17239 -1.2495,0.0177 -2.393562,-0.34377 -1.144062,-0.36147 -3.365827,-0.82952 -4.937256,-1.04011 -2.761213,-0.37003 -2.797187,-0.34892 -1.071428,0.62869 0.982143,0.55636 2.621678,1.02296 3.643412,1.03688 3.015964,0.0411 6.255367,1.46256 8.540342,3.74753 1.624966,1.62497 2.553143,2.0337 3.868541,1.70356 1.414729,-0.35508 2.15379,0.0922 4.048903,2.45042 1.442462,1.79495 2.70982,2.73453 3.354694,2.48707 1.060466,-0.40694 3.686965,1.4811 3.686965,2.65035 0,0.35714 0.792919,2.38285 1.762042,4.50157 1.243472,2.7185 2.452208,4.20189 4.107144,5.04037 1.289807,0.65348 2.827243,1.59671 3.416528,2.09607 1.026715,0.87003 5.661657,1.77077 9.159186,1.77997 2.478843,0.007 9.397007,3.50376 11.888164,6.00965 1.203765,1.21089 2.665923,3.1659 3.249233,4.34447 2.61425,5.28205 7.23364,13.12372 8.20666,13.93126 0.58751,0.48758 1.06819,1.57921 1.06819,2.42584 0,2.33769 1.94446,4.62216 4.49629,5.28252 1.44263,0.37332 2.87418,1.50064 3.87038,3.04784 3.72232,5.7812 3.57024,5.66968 7.73205,5.66968 3.11559,0 4.06662,0.28415 4.78133,1.42857 0.49069,0.78572 1.64918,1.42857 2.57442,1.42857 1.77297,0 5.83125,2.07641 5.83125,2.98355 0,0.29298 1.31117,1.83081 2.91372,3.41743 1.96035,1.94086 3.54582,2.88474 4.84559,2.88474 1.40351,0 3.19507,1.22552 6.55056,4.48095 2.54028,2.46452 6.00573,5.37581 7.701,6.46953 3.39021,2.18725 3.85813,2.1663 15.84627,-0.70952 7.88836,-1.89233 15.46008,-0.37805 22.77825,4.55544 1.33161,0.89769 2.94016,1.63217 3.57456,1.63217 0.6344,0 3.47135,2.25 6.30432,5 2.83297,2.75 5.56091,5 6.0621,5 0.50119,0 2.52117,1.06614 4.48886,2.36919 17.60732,11.66006 16.54773,11.17415 18.64278,8.54924 1.46091,-1.83041 1.97984,-1.98915 6.47579,-1.981 5.02577,0.009 8.35354,0.96843 11.94123,3.44238 1.12948,0.77886 3.21877,1.67066 4.64286,1.98178 5.45162,1.19103 16.82231,5.57804 19.68176,7.59357 1.64355,1.15848 3.89189,2.33312 4.99629,2.61031 1.10442,0.27719 3.96265,1.77407 6.35163,3.32639 2.38899,1.55234 5.07237,2.82243 5.96307,2.82243 1.46956,0 6.51141,1.96262 7.3822,2.87364 0.19643,0.2055 1.32143,0.97989 2.5,1.72086 1.17857,0.74097 3.91072,3.03208 6.07143,5.09135 2.16073,2.05927 6.14972,5.78488 8.86447,8.27914 2.71473,2.49426 5.64445,5.25822 6.51047,6.14215 1.64639,1.68043 3.19649,2.11341 3.19649,0.89286 0,-1.98111 6.45631,-0.25443 10.14884,2.71422 3.09273,2.48644 14.13687,13.7705 14.13687,14.44398 0,1.52521 3.76755,0.3264 6.29765,-2.00388 0.54766,-0.5044 1.68509,-0.73422 2.52762,-0.51071 4.68016,1.24161 6.88902,2.07961 6.88902,2.61357 0,0.32998 0.44441,0.59996 0.98758,0.59996 0.97426,0 14.78876,9.89729 16.87031,12.08661 1.94785,2.0487 8.4581,7.1991 9.09985,7.1991 0.34652,0 1.25314,0.57307 2.01472,1.27349 2.32438,2.13771 7.59837,3.72651 12.37006,3.72651 2.47997,0 6.32637,0.52357 8.54755,1.16349 4.78991,1.37996 11.60034,4.68969 12.9187,6.27823 0.51567,0.62134 1.78215,1.13993 2.8144,1.15243 1.03226,0.0125 2.49,0.48677 3.23944,1.05395 1.1969,0.90582 1.46388,0.89274 2.1953,-0.10755 0.6276,-0.8583 1.17161,-0.96262 2.20882,-0.42355 3.45551,1.79593 9.60591,3.66497 13.51898,4.10827 2.35715,0.26704 5.40108,0.94945 6.76429,1.51648 1.36322,0.56703 3.67619,1.14632 5.13994,1.2873 1.46375,0.141 3.69243,0.77071 4.9526,1.39937 1.26018,0.62865 2.80435,1.14421 3.43149,1.14568 0.62714,10e-4 2.10454,0.59007 3.28312,1.308 1.97078,1.20052 2.80248,1.23942 10.35715,0.48454 4.51785,-0.45144 9.17856,-0.59703 10.35714,-0.32352 1.17856,0.2735 4.04476,0.92205 6.36931,1.44121 2.32455,0.51917 6.1817,1.62452 8.57143,2.45635 3.80912,1.32589 5.33045,1.94914 5.33045,1.94914 l 3.03045,1.45429 c 1.66676,0.79986 3.65549,1.59203 4.41942,1.76038 0.76393,0.16835 1.38896,0.51531 1.38896,0.77103 0,0.25572 0.4359,0.46495 0.96866,0.46495 0.53276,0 2.09993,0.56821 3.48261,1.26269 1.38268,0.69448 2.82188,1.26774 3.19823,1.27392 0.37634,0.006 1.25247,0.45569 1.94695,0.99892 0.69448,0.54323 1.51536,0.99274 1.82418,0.99892 0.30881,0.006 2.02511,0.67487 3.81399,1.48599 7.60404,3.44783 14.53306,2.34183 20.95882,-3.34543 1.88151,-1.66528 6.23297,-7.00952 6.23297,-7.65503 0,-0.42405 1.75987,-3.60861 3.62489,-6.55938 0.46583,-0.73703 0.86358,-1.66032 0.88388,-2.05177 0.0203,-0.39144 0.94605,-1.91586 2.05722,-3.38759 1.11117,-1.47173 2.02031,-2.91778 2.02031,-3.21345 0,-0.47281 2.34171,-4.39016 3.02573,-5.06161 0.59567,-0.58473 3.53882,-5.00175 5.04813,-7.57614 2.38984,-4.0763 6.99698,-9.95214 9.12448,-11.63716 1.79273,-1.41986 4.03595,-2.99095 10.23171,-7.16599 1.61362,-1.08735 3.03558,-2.2449 3.1599,-2.57234 0.12431,-0.32743 0.30027,-1.82785 0.39102,-3.33427 0.14638,-2.43008 -0.0512,-3.09483 -1.75245,-5.89509 -2.06684,-3.40208 -2.46015,-5.50474 -1.54992,-8.28603 0.3182,-0.97227 0.71225,-2.84761 0.87567,-4.16742 0.2738,-2.21123 0.5113,-2.54832 3.02486,-4.29314 2.77915,-1.9292 3.33533,-2.65111 2.04247,-2.65111 -0.39796,0 -0.86785,-0.45457 -1.04418,-1.01016 -0.17634,-0.55558 -0.48973,-1.01015 -0.69642,-1.01015 -0.20669,0 -0.8164,-0.40392 -1.35492,-0.89761 -0.53852,-0.49369 -1.70419,-1.40861 -2.59038,-2.03316 -2.46106,-1.73447 -6.90663,-8.58187 -9.05077,-13.94069 -2.20174,-5.5028 -2.23299,-10.1867 -0.07,-10.49391 0.76218,-0.10825 1.46776,-0.8619 2.14574,-2.29193 0.55558,-1.17186 1.25224,-2.04743 1.54812,-1.94572 0.75144,0.25831 6.56899,-4.35029 8.39178,-6.64786 0.83023,-1.04647 2.30675,-2.63435 3.28116,-3.52861 1.36346,-1.2513 1.81857,-2.11288 1.97523,-3.73932 0.11196,-1.16236 -0.0364,-2.40257 -0.32977,-2.75601 -0.29334,-0.35345 -0.48365,-0.9436 -0.42293,-1.31145 0.0607,-0.36785 -0.076,-1.09943 -0.30386,-1.62574 -0.28699,-0.66293 -0.16373,-1.14011 0.40122,-1.55322 0.51526,-0.37676 0.70973,-1.00068 0.52823,-1.69472 -0.15798,-0.60414 -0.0547,-1.09844 0.22945,-1.09844 0.28419,0 0.40454,-0.42891 0.26745,-0.95315 -0.13709,-0.52423 -0.002,-1.10586 0.29982,-1.2925 0.302,-0.18664 0.54908,-0.80225 0.54908,-1.36803 0,-1.17606 1.32917,-3.69477 2.69758,-5.11179 0.91424,-0.94671 0.94582,-0.94567 1.8844,0.0618 l 0.95458,1.02461 3.03006,-1.23122 c 1.66653,-0.67718 3.2837,-1.23122 3.59371,-1.23122 0.31,0 1.76312,-0.3487 3.22914,-0.77488 l 2.66549,-0.77488 0.23398,-4.04191 c 0.12869,-2.22305 0.49837,-4.3063 0.82151,-4.62944 0.32314,-0.32314 0.56958,-1.28074 0.54765,-2.12801 -0.0219,-0.84726 -0.15026,-1.26914 -0.28517,-0.93751 -0.13491,0.33164 -0.56174,0.48154 -0.94852,0.33312 -1.24167,-0.47648 -0.28511,-3.31357 1.71416,-5.08401 1.48325,-1.31348 1.64742,-1.62614 0.86186,-1.64149 -0.5337,-0.0104 -1.37057,0.3432 -1.85969,0.78585 -0.8286,0.74987 -0.96254,0.66127 -1.96211,-1.29806 -0.97988,-1.92074 -1.02006,-2.35135 -0.46383,-4.97169 0.6915,-3.25765 2.77273,-6.2563 9.24816,-13.32475 3.65521,-3.98998 4.21526,-4.4089 6.07701,-4.54569 1.81659,-0.13347 2.15223,-0.36694 2.93957,-2.04471 0.48885,-1.04172 1.22796,-1.89404 1.64246,-1.89404 0.87531,0 0.96116,-0.68881 0.25121,-2.01536 -0.40709,-0.76065 -0.0912,-1.42062 1.66484,-3.47783 1.42837,-1.67338 2.45167,-3.53753 3.00143,-5.46771 1.55105,-5.44566 1.5577,-5.8854 0.11259,-7.4447 -0.93732,-1.01137 -1.16178,-1.57859 -0.77696,-1.96341 0.91257,-0.91257 0.63153,-3.30457 -0.46901,-3.99186 -0.55558,-0.34697 -1.01015,-0.8666 -1.01015,-1.15473 0,-0.28812 -0.45457,-0.91308 -1.01015,-1.38879 -1.19365,-1.02202 -1.2923,-1.80839 -0.27582,-2.19845 0.87351,-0.3352 2.68593,-3.27446 2.82168,-4.57602 0.25626,-2.45697 -0.0802,-3.26101 -1.78572,-4.26729 -1.40259,-0.82755 -1.70721,-1.27275 -1.48277,-2.16702 0.17403,-0.69338 -0.0209,-1.37725 -0.50759,-1.78121 -0.53145,-0.44106 -0.79009,-0.47013 -0.79009,-0.0888 0,1.40675 -1.12305,0.31447 -2.51811,-2.44913 -1.71136,-3.3902 -1.86162,-4.32189 -0.76488,-4.74275 1.30048,-0.49904 0.87665,-1.47196 -0.49163,-1.12854 -1.07978,0.271 -1.39231,0.0331 -2.30399,-1.75394 -0.71808,-1.40757 -0.95263,-2.53238 -0.73483,-3.52402 0.23667,-1.07755 0.0509,-1.7453 -0.71404,-2.56634 -0.56867,-0.6104 -1.0428,-1.58435 -1.05362,-2.16434 -0.0108,-0.58 -0.0732,-1.85003 -0.1387,-2.8223 -0.11718,-1.74032 -0.0857,-1.77018 2.02754,-1.92308 1.18062,-0.0854 2.16777,-0.3127 2.19367,-0.50508 0.62986,-4.67804 -0.0658,-6.66321 -2.33509,-6.66321 -3.99383,0 -5.54917,-1.5763 -3.12354,-3.16564 0.63496,-0.41604 1.16906,-1.18085 1.1869,-1.69959 0.0178,-0.51873 0.20482,-1.56818 0.41552,-2.33211 0.33121,-1.20087 0.23719,-1.38896 -0.69432,-1.38896 -0.6845,0 -1.25248,-0.46048 -1.55748,-1.26269 -0.26404,-0.69448 -0.71299,-1.26269 -0.99765,-1.26269 -0.94606,0 -0.53537,-1.34631 0.87138,-2.85654 0.76393,-0.82012 1.81929,-2.27436 2.34523,-3.23164 0.52595,-0.95728 1.48727,-2.21753 2.13626,-2.80055 l 1.17998,-1.06006 -1.30871,-0.59629 c -1.25583,-0.57219 -1.29419,-0.71305 -0.94936,-3.48563 0.40766,-3.27784 0.55838,-3.64696 1.48906,-3.64696 0.36628,0 0.9489,-0.34093 1.29472,-0.75762 0.34583,-0.41668 1.0759,-0.75761 1.62239,-0.75761 0.54649,0 1.40857,-0.51139 1.91574,-1.13642 0.62144,-0.76585 1.46986,-1.13642 2.60182,-1.13642 0.97259,0 1.6816,-0.25663 1.68422,-0.60961 0.003,-0.33528 0.41463,-0.90949 0.91589,-1.27601 0.89995,-0.65806 0.72513,-2.69818 -0.18311,-2.13685 -0.23572,0.14568 -0.68444,-0.68533 -0.99717,-1.84668 -0.31272,-1.16136 -0.89154,-2.43452 -1.28626,-2.82924 -0.95287,-0.95287 -0.90749,-1.32734 0.29248,-2.41329 1.56909,-1.42001 1.31831,-2.46075 -0.50508,-2.09607 -1.75922,0.35185 -1.93401,-0.1463 -0.50508,-1.43947 1.20038,-1.08632 1.29773,-1.76776 0.25254,-1.76776 -1.06111,0 -0.94332,-0.62665 0.32132,-1.70947 0.8095,-0.69311 0.91947,-1.02237 0.44037,-1.31847 -0.7486,-0.46266 -0.24499,-1.51775 0.72444,-1.51775 0.93757,0 1.34446,-1.89202 0.47836,-2.22437 -0.76018,-0.29171 -0.98143,-1.81624 -0.82018,-2.17699 -1.73516,-0.18172 -3.21044,0.18556 -3.83501,0.45543 -0.65975,0.28508 -1.50468,0.0459 -2.0165,-0.57079 -0.48453,-0.58382 -1.26846,-0.91278 -1.74208,-0.73103 -1.28555,0.49331 -3.29233,-1.25455 -3.66322,-3.19059 -0.17953,-0.93708 -0.48189,-1.85928 -0.67193,-2.04931 -0.19005,-0.19004 0.15849,-0.84956 0.77452,-1.46559 0.87209,-0.87209 1.01879,-1.98157 0.66266,-5.01165 -0.25155,-2.14038 -0.64523,-4.19557 -0.87484,-4.56708 -0.53796,-0.87043 -3.70148,-0.079 -5.04178,1.26126 -1.97277,1.97277 -2.80547,1.25442 -3.35285,-2.89241 -0.15557,-1.17857 -0.52222,-3.20487 -0.81478,-4.50289 -0.51719,-2.29463 -0.6176,-2.35111 -3.62288,-2.03795 -1.96697,0.20497 -3.36179,-0.004 -3.83575,-0.57532 -0.56964,-0.68639 -1.41569,-0.71834 -3.59775,-0.13592 -1.56913,0.41883 -2.85297,0.99497 -2.85297,1.28032 0,0.28535 -3.38749,0.50025 -7.52776,0.47756 -7.52157,-0.0412 -7.52862,-0.0429 -8.57143,-2.05949 -0.57401,-1.11002 -1.05344,-2.7574 -1.06539,-3.66083 -0.0199,-1.50187 -0.0866,-1.53104 -0.77897,-0.34045 -0.71256,1.22532 -0.83603,1.23086 -2.09235,0.0939 -0.87553,-0.79234 -1.94015,-1.05639 -3.09284,-0.76709 -2.3683,0.5944 -4.01411,-0.13411 -4.01411,-1.77684 0,-0.95738 -0.50904,-1.35215 -1.74356,-1.35215 -0.95896,0 -1.95172,-0.33681 -2.20614,-0.74846 -0.25442,-0.41166 -0.9966,-0.68369 -1.6493,-0.60451 -1.30755,0.15861 -3.83833,-0.74335 -4.40582,-1.57023 -0.19908,-0.29007 -1.64551,-0.72154 -3.21428,-0.95883 -5.73755,-0.86783 -11.4234,-2.94218 -11.43205,-4.17073 -0.0111,-1.57587 -0.82588,-2.22078 -4.63457,-3.66831 -5.93296,-2.25487 -7.14286,-2.90846 -7.14286,-3.85857 0,-0.62014 -0.49128,-0.78927 -1.42857,-0.49179 -0.87499,0.27772 -1.42857,0.12836 -1.42857,-0.38543 0,-0.46136 -0.45864,-0.66284 -1.01921,-0.44773 -0.56055,0.21511 -1.40055,-0.0684 -1.86664,-0.63 -0.46609,-0.56161 -1.14653,-0.83626 -1.51208,-0.61034 -1.15647,0.71474 -2.74493,-1.23608 -2.74493,-3.3711 0,-1.30515 -0.37245,-2.0554 -1.0204,-2.0554 -0.56123,0 -1.44516,-0.40864 -1.96429,-0.90808 -3.42146,-3.29173 -5.215,-4.15961 -7.72111,-3.7362 -2.68184,0.45309 -2.83961,0.35151 -7.43777,-4.78888 -0.95108,-1.06324 -1.93806,-2.8311 -2.19328,-3.92857 -0.34557,-1.486 -1.36472,-2.43583 -3.99216,-3.72058 -1.94047,-0.94885 -3.52813,-1.99349 -3.52813,-2.32143 0,-0.32794 -0.5625,-0.62241 -1.25,-0.65439 -0.6875,-0.032 -2.69643,-1.77367 -4.46428,-3.87044 -1.76786,-2.09676 -3.60995,-3.83846 -4.09354,-3.87043 -0.48359,-0.032 -1.07756,-0.84828 -1.31994,-1.81399 -0.53672,-2.13847 -5.45421,-4.70447 -9.99692,-5.2165 -1.72599,-0.19454 -3.5041,-0.79464 -3.95135,-1.33354 -0.44725,-0.5389 -1.7414,-0.97982 -2.8759,-0.97982 -1.20373,0 -3.5439,-1.0411 -5.6195,-2.5 -1.95623,-1.375 -4.21096,-2.5 -5.01053,-2.5 -1.01409,0 -1.57305,-0.59407 -1.84823,-1.96429 M 708.16697,77.006808 c 0.196,-0.236171 0.53398,-0.320741 0.90734,-0.227034 0.77307,0.194028 1.24219,-0.29081 1.47329,-1.522666 0.20085,-1.070663 0.651,-1.662007 1.26516,-1.662007 0.43856,0 0.54267,-0.637679 0.1443,-0.883883 -0.13889,-0.08584 -0.25253,-0.376656 -0.25253,-0.64625 0,-0.35449 0.17475,-0.490172 0.63134,-0.490172 0.52972,0 0.63135,-0.119054 0.63135,-0.739575 0,-0.406768 -0.14206,-0.894546 -0.31568,-1.083952 -0.17362,-0.189409 -0.44371,-0.566862 -0.60021,-0.838788 -0.17181,-0.298548 -0.54698,-0.490467 -0.94701,-0.484456 -0.73804,0.01109 -0.85904,-0.408665 -0.28368,-0.98403 0.42852,-0.428515 0.50864,-1.172499 0.12627,-1.172499 -0.13889,0 -0.25254,-0.340927 -0.25254,-0.757615 0,-0.416688 0.11365,-0.757614 0.25254,-0.757614 0.1389,0 0.25254,-0.355705 0.25254,-0.790457 0,-0.788647 -0.003,-0.790162 -1.14809,-0.661052 -0.78667,0.08867 -1.25799,0.0195 -1.49719,-0.219695 -0.19201,-0.192005 -0.69815,-0.349101 -1.12475,-0.349101 -0.42661,0 -0.77566,-0.113643 -0.77566,-0.252539 0,-0.430984 -0.76414,-0.277145 -0.94081,0.189404 -0.21477,0.567181 -0.7153,1.073287 -1.06145,1.073287 -0.14882,0 -0.27058,0.113642 -0.27058,0.252538 0,0.138896 0.11807,0.252538 0.26238,0.252538 0.1443,0 0.0307,0.248713 -0.25254,0.552695 -0.38597,0.414292 -0.51492,0.893109 -0.51492,1.912075 0,1.365666 -0.36192,2.086546 -0.94927,1.890761 -0.17238,-0.05746 -0.31342,-0.265466 -0.31342,-0.462233 0,-0.196771 -0.11364,-0.357764 -0.25254,-0.357764 -0.13889,0 -0.25253,-0.397747 -0.25253,-0.883883 0,-0.486136 0.11364,-0.883884 0.25253,-0.883884 0.1389,0 0.25254,-0.340926 0.25254,-0.757614 0,-0.675949 -0.0829,-0.757614 -0.76909,-0.757614 -1.23496,0 -2.00883,0.968443 -2.00883,2.513903 0,0.822661 0.10739,1.274169 0.30305,1.274169 0.2357,0 0.2357,0.06734 0,0.303045 -0.36641,0.366413 -0.40429,1.464722 -0.0505,1.464722 0.1389,0 0.25254,0.217814 0.25254,0.484032 0,0.266215 0.14205,0.541351 0.31567,0.611407 0.25254,0.101902 0.25254,0.131363 0,0.147313 -0.42676,0.02695 -0.39978,0.729517 0.0451,1.174399 0.19842,0.198421 0.70981,0.360768 1.13642,0.360768 0.52111,0 0.77565,0.124312 0.77565,0.378807 0,0.208344 0.11365,0.378807 0.25254,0.378807 0.1389,0 0.25254,-0.284105 0.25254,-0.631345 0,-0.34724 -0.11364,-0.631345 -0.25254,-0.631345 -0.13889,0 -0.25254,-0.170463 -0.25254,-0.378807 0,-0.208344 0.11365,-0.378808 0.25254,-0.378808 0.1389,0 0.25254,-0.507824 0.25254,-1.128497 0,-0.899351 0.0769,-1.098977 0.37881,-0.983133 0.27208,0.104409 0.3788,0.530035 0.3788,1.510731 0,1.193071 0.30155,2.209805 0.7774,2.621204 0.37422,0.323535 0.99037,1.918813 0.99037,2.564182 0,0.550455 0.1183,0.718814 0.50508,0.718814 0.27779,0 0.50507,0.113642 0.50507,0.252538 0,0.392424 1.16379,0.29719 1.5132,-0.123827 z m -9.29138,-7.755362 c -0.16668,-0.166676 -0.30305,-0.629361 -0.30305,-1.028192 0,-0.72736 -0.56089,-1.559223 -0.85382,-1.266297 -0.27585,0.275853 -0.16682,1.98095 0.14672,2.294489 0.16667,0.166675 0.53033,0.303045 0.80812,0.303045 0.39284,0 0.43773,-0.06734 0.20203,-0.303045 z m -5.35381,-4.747717 c 0,-0.335833 1.18785,-0.325401 1.39654,0.01227 0.2345,0.379428 0.8763,-0.207076 0.8763,-0.800799 0,-0.260786 0.11365,-0.474155 0.25254,-0.474155 0.1389,0 0.25254,-0.15721 0.25254,-0.349354 0,-0.192143 0.22728,-0.408788 0.50508,-0.481433 0.42975,-0.112382 0.50507,-0.344465 0.50507,-1.556161 0,-1.789336 -0.60519,-2.503276 -2.20971,-2.606782 -0.60911,-0.03929 -1.07328,0.04262 -1.07328,0.189404 0,0.142252 -0.39775,0.25864 -0.88389,0.25864 -0.48613,0 -0.88388,-0.113643 -0.88388,-0.252539 0,-0.471923 -0.80421,-0.255169 -0.93698,0.252539 -0.1332,0.509354 -0.83079,0.721402 -0.83079,0.252538 0,-0.138896 -0.34092,-0.252538 -0.75761,-0.252538 -0.41669,0 -0.75762,0.113642 -0.75762,0.252538 0,0.138896 -0.17046,0.252538 -0.3788,0.252538 -0.25341,0 -0.37881,0.253419 -0.37881,0.765539 0,0.447518 0.15737,0.825928 0.37881,0.910902 0.20834,0.07995 0.3788,0.360488 0.3788,0.623421 0,0.321496 0.18609,0.484585 0.56821,0.497995 0.31252,0.01096 0.42616,0.07726 0.25254,0.147313 -0.17362,0.07006 -0.31567,0.458834 -0.31567,0.863946 0,0.612566 0.10378,0.73657 0.61644,0.73657 0.33904,0 0.68668,0.113642 0.77252,0.252538 0.0858,0.138896 0.43348,0.252539 0.77252,0.252539 0.33904,0 0.61644,0.113642 0.61644,0.252538 0,0.138896 0.2841,0.252538 0.63134,0.252538 0.34724,0 0.63135,-0.113642 0.63135,-0.252545 z M 688.8934,47.773077 c 0.28438,-0.449621 0.31846,-1.685189 0.051,-1.850461 -0.12398,-0.07662 -0.45168,-0.0675 -0.72823,0.02028 -0.37021,0.117501 -0.50282,0.382649 -0.50282,1.005408 0,0.998573 0.74204,1.517231 1.18,0.824777 v -3e-6 z"
       inkscape:connector-curvature="0"
       sodipodi:nodetypes="ccccccsssssssssssssssssssssscsssssssssssscssscsscsssssssscscsssssssssssssssssscssscsscsssssscsscssssssscsccscsscsscsssscscscsscsccsccsssssssscscsssssccssscsssssscsscsssssssscssssssssscsssssscssccssssssscsscssssssscsssssssssssscscssscccccscscccccssssssscsssssssssssscsssssssssssscsscsssssssssssssssssscsssssssssssssssssssssssssssssscscssssccssssscscssssssssssscsssssscsssssssssscccccsscssccssscsscssscsssssssssssssscsssccsssssscccccsscssssssscssscssscccssssssssssccsscsssscssscsssscsssssssssssscscsssssssssscscssssssccsssssssscsssssscssssssscsssssssssssssssssssssssscssssscscsscssssssssssssssssssscsccsscssscscccsc" />
    <path
       id="coastline"
       style="fill:#fefee9;fill-opacity:1;stroke:#0978ab;stroke-linecap:round;stroke-linejoin:round"
       d="m 39.981647,587.40854 -0.442261,1.60714 c -0.429813,1.56191 -0.411062,1.56812 0.666151,0.22063 0.609627,-0.76259 1.108414,-1.91438 1.108414,-2.55953 0,-1.6096 0.559862,-2.03202 2.14408,-1.61774 0.74089,0.19375 1.482076,1.04272 1.647081,1.8866 0.230475,1.17872 0.322552,1.06136 0.39728,-0.50638 0.07828,-1.6422 0.341367,-1.94266 1.347273,-1.53861 1.524304,0.61226 2.878691,0.9571 2.142857,0.54559 -0.717532,-0.40129 -0.688119,-5.71634 0.0341,-6.1627 0.952711,-0.58881 2.040933,0.51701 2.548095,2.58929 0.464654,1.89859 1.882086,2.78243 1.882086,1.17358 0,-0.43678 0.520115,-0.59112 1.161963,-0.34482 0.63908,0.24524 1.578178,0.10046 2.086885,-0.32173 2.207655,-1.83219 6.474163,3.85188 4.592803,6.11878 -0.798577,0.96222 -1.039473,0.96586 -2.072177,0.0313 -2.074878,-1.87773 -6.808239,-0.55851 -7.296996,2.03373 -0.318411,1.68876 -2.043907,2.39199 -2.043907,0.833 0,-0.62203 -0.29514,-1.13096 -0.655866,-1.13096 -0.360726,0 -1.244654,-0.223 -1.964286,-0.49556 -1.018652,-0.38582 -0.857426,0.0991 0.728,2.18977 1.120031,1.47693 1.895367,2.82639 1.72297,2.99879 -0.172397,0.17239 -1.2495,0.0177 -2.393562,-0.34377 -1.144062,-0.36147 -3.365827,-0.82952 -4.937256,-1.04011 -2.761213,-0.37003 -2.797187,-0.34892 -1.071428,0.62869 0.982143,0.55636 2.621678,1.02296 3.643412,1.03688 3.015964,0.0411 6.255367,1.46256 8.540342,3.74753 1.624966,1.62497 2.553143,2.0337 3.868541,1.70356 1.414729,-0.35508 2.15379,0.0922 4.048903,2.45042 1.442462,1.79495 2.70982,2.73453 3.354694,2.48707 1.060466,-0.40694 3.686965,1.4811 3.686965,2.65035 0,0.35714 0.792919,2.38285 1.762042,4.50157 1.243472,2.7185 2.452208,4.20189 4.107144,5.04037 1.289807,0.65348 2.827243,1.59671 3.416528,2.09607 1.026715,0.87003 5.661657,1.77077 9.159186,1.77997 2.478843,0.007 9.397007,3.50376 11.888164,6.00965 1.203765,1.21089 2.665923,3.1659 3.249233,4.34447 2.61425,5.28205 7.23364,13.12372 8.20666,13.93126 0.58751,0.48758 1.06819,1.57921 1.06819,2.42584 0,2.33769 1.94446,4.62216 4.49629,5.28252 1.44263,0.37332 2.87418,1.50064 3.87038,3.04784 3.72232,5.7812 3.57024,5.66968 7.73205,5.66968 3.11559,0 4.06662,0.28415 4.78133,1.42857 0.49069,0.78572 1.64918,1.42857 2.57442,1.42857 1.77297,0 5.83125,2.07641 5.83125,2.98355 0,0.29298 1.31117,1.83081 2.91372,3.41743 1.96035,1.94086 3.54582,2.88474 4.84559,2.88474 1.40351,0 3.19507,1.22552 6.55056,4.48095 2.54028,2.46452 6.00573,5.37581 7.701,6.46953 3.39021,2.18725 3.85813,2.1663 15.84627,-0.70952 7.88836,-1.89233 15.46008,-0.37805 22.77825,4.55544 1.33161,0.89769 2.94016,1.63217 3.57456,1.63217 0.6344,0 3.47135,2.25 6.30432,5 2.83297,2.75 5.56091,5 6.0621,5 0.50119,0 2.52117,1.06614 4.48886,2.36919 17.60732,11.66006 16.54773,11.17415 18.64278,8.54924 1.46091,-1.83041 1.97984,-1.98915 6.47579,-1.981 5.02577,0.009 8.35354,0.96843 11.94123,3.44238 1.12948,0.77886 3.21877,1.67066 4.64286,1.98178 5.45162,1.19103 16.82231,5.57804 19.68176,7.59357 1.64355,1.15848 3.89189,2.33312 4.99629,2.61031 1.10442,0.27719 3.96265,1.77407 6.35163,3.32639 2.38899,1.55234 5.07237,2.82243 5.96307,2.82243 1.46956,0 6.51141,1.96262 7.3822,2.87364 0.19643,0.2055 1.32143,0.97989 2.5,1.72086 1.17857,0.74097 3.91072,3.03208 6.07143,5.09135 2.16073,2.05927 6.14972,5.78488 8.86447,8.27914 2.71473,2.49426 5.64445,5.25822 6.51047,6.14215 1.64639,1.68043 3.19649,2.11341 3.19649,0.89286 0,-1.98111 6.45631,-0.25443 10.14884,2.71422 3.09273,2.48644 14.13687,13.7705 14.13687,14.44398 0,1.52521 3.76755,0.3264 6.29765,-2.00388 0.54766,-0.5044 1.68509,-0.73422 2.52762,-0.51071 4.68016,1.24161 6.88902,2.07961 6.88902,2.61357 0,0.32998 0.44441,0.59996 0.98758,0.59996 0.97426,0 14.78876,9.89729 16.87031,12.08661 1.94785,2.0487 8.4581,7.1991 9.09985,7.1991 0.34652,0 1.25314,0.57307 2.01472,1.27349 2.32438,2.13771 7.59837,3.72651 12.37006,3.72651 2.47997,0 6.32637,0.52357 8.54755,1.16349 4.78991,1.37996 11.60034,4.68969 12.9187,6.27823 0.51567,0.62134 1.78215,1.13993 2.8144,1.15243 1.03226,0.0125 2.49,0.48677 3.23944,1.05395 1.1969,0.90582 1.46388,0.89274 2.1953,-0.10755 0.6276,-0.8583 1.17161,-0.96262 2.20882,-0.42355 3.45551,1.79593 9.60591,3.66497 13.51898,4.10827 2.35715,0.26704 5.40108,0.94945 6.76429,1.51648 1.36322,0.56703 3.67619,1.14632 5.13994,1.2873 1.46375,0.141 3.69243,0.77071 4.9526,1.39937 1.26018,0.62865 2.80435,1.14421 3.43149,1.14568 0.62714,10e-4 2.10454,0.59007 3.28312,1.308 1.97078,1.20052 2.80248,1.23942 10.35715,0.48454 4.51785,-0.45144 9.17856,-0.59703 10.35714,-0.32352 1.17856,0.2735 4.04476,0.92205 6.36931,1.44121 2.32455,0.51917 6.1817,1.62452 8.57143,2.45635 3.80912,1.32589 5.33045,1.94914 5.33045,1.94914 l 3.03045,1.45429 c 1.66676,0.79986 3.65549,1.59203 4.41942,1.76038 0.76393,0.16835 1.38896,0.51531 1.38896,0.77103 0,0.25572 0.4359,0.46495 0.96866,0.46495 0.53276,0 2.09993,0.56821 3.48261,1.26269 1.38268,0.69448 2.82188,1.26774 3.19823,1.27392 0.37634,0.006 1.25247,0.45569 1.94695,0.99892 0.69448,0.54323 1.51536,0.99274 1.82418,0.99892 0.30881,0.006 2.02511,0.67487 3.81399,1.48599 7.60404,3.44783 14.53306,2.34183 20.95882,-3.34543 1.88151,-1.66528 6.23297,-7.00952 6.23297,-7.65503 0,-0.42405 1.75987,-3.60861 3.62489,-6.55938 0.46583,-0.73703 0.86358,-1.66032 0.88388,-2.05177 0.0203,-0.39144 0.94605,-1.91586 2.05722,-3.38759 1.11117,-1.47173 2.02031,-2.91778 2.02031,-3.21345 0,-0.47281 2.34171,-4.39016 3.02573,-5.06161 0.59567,-0.58473 3.53882,-5.00175 5.04813,-7.57614 2.38984,-4.0763 6.99698,-9.95214 9.12448,-11.63716 1.79273,-1.41986 4.03595,-2.99095 10.23171,-7.16599 1.61362,-1.08735 3.03558,-2.2449 3.1599,-2.57234 0.12431,-0.32743 0.30027,-1.82785 0.39102,-3.33427 0.14638,-2.43008 -0.0512,-3.09483 -1.75245,-5.89509 -2.06684,-3.40208 -2.46015,-5.50474 -1.54992,-8.28603 0.3182,-0.97227 0.71225,-2.84761 0.87567,-4.16742 0.2738,-2.21123 0.5113,-2.54832 3.02486,-4.29314 2.77915,-1.9292 3.33533,-2.65111 2.04247,-2.65111 -0.39796,0 -0.86785,-0.45457 -1.04418,-1.01016 -0.17634,-0.55558 -0.48973,-1.01015 -0.69642,-1.01015 -0.20669,0 -0.8164,-0.40392 -1.35492,-0.89761 -0.53852,-0.49369 -1.70419,-1.40861 -2.59038,-2.03316 -2.46106,-1.73447 -6.90663,-8.58187 -9.05077,-13.94069 -2.20174,-5.5028 -2.23299,-10.1867 -0.07,-10.49391 0.76218,-0.10825 1.46776,-0.8619 2.14574,-2.29193 0.55558,-1.17186 1.25224,-2.04743 1.54812,-1.94572 0.75144,0.25831 6.56899,-4.35029 8.39178,-6.64786 0.83023,-1.04647 2.30675,-2.63435 3.28116,-3.52861 1.36346,-1.2513 1.81857,-2.11288 1.97523,-3.73932 0.11196,-1.16236 -0.0364,-2.40257 -0.32977,-2.75601 -0.29334,-0.35345 -0.48365,-0.9436 -0.42293,-1.31145 0.0607,-0.36785 -0.076,-1.09943 -0.30386,-1.62574 -0.28699,-0.66293 -0.16373,-1.14011 0.40122,-1.55322 0.51526,-0.37676 0.70973,-1.00068 0.52823,-1.69472 -0.15798,-0.60414 -0.0547,-1.09844 0.22945,-1.09844 0.28419,0 0.40454,-0.42891 0.26745,-0.95315 -0.13709,-0.52423 -0.002,-1.10586 0.29982,-1.2925 0.302,-0.18664 0.54908,-0.80225 0.54908,-1.36803 0,-1.17606 1.32917,-3.69477 2.69758,-5.11179 0.91424,-0.94671 0.94582,-0.94567 1.8844,0.0618 l 0.95458,1.02461 3.03006,-1.23122 c 1.66653,-0.67718 3.2837,-1.23122 3.59371,-1.23122 0.31,0 1.76312,-0.3487 3.22914,-0.77488 l 2.66549,-0.77488 0.23398,-4.04191 c 0.12869,-2.22305 0.49837,-4.3063 0.82151,-4.62944 0.32314,-0.32314 0.56958,-1.28074 0.54765,-2.12801 -0.0219,-0.84726 -0.15026,-1.26914 -0.28517,-0.93751 -0.13491,0.33164 -0.56174,0.48154 -0.94852,0.33312 -1.24167,-0.47648 -0.28511,-3.31357 1.71416,-5.08401 1.48325,-1.31348 1.64742,-1.62614 0.86186,-1.64149 -0.5337,-0.0104 -1.37057,0.3432 -1.85969,0.78585 -0.8286,0.74987 -0.96254,0.66127 -1.96211,-1.29806 -0.97988,-1.92074 -1.02006,-2.35135 -0.46383,-4.97169 0.6915,-3.25765 2.77273,-6.2563 9.24816,-13.32475 3.65521,-3.98998 4.21526,-4.4089 6.07701,-4.54569 1.81659,-0.13347 2.15223,-0.36694 2.93957,-2.04471 0.48885,-1.04172 1.22796,-1.89404 1.64246,-1.89404 0.87531,0 0.96116,-0.68881 0.25121,-2.01536 -0.40709,-0.76065 -0.0912,-1.42062 1.66484,-3.47783 1.42837,-1.67338 2.45167,-3.53753 3.00143,-5.46771 1.55105,-5.44566 1.5577,-5.8854 0.11259,-7.4447 -0.93732,-1.01137 -1.16178,-1.57859 -0.77696,-1.96341 0.91257,-0.91257 0.63153,-3.30457 -0.46901,-3.99186 -0.55558,-0.34697 -1.01015,-0.8666 -1.01015,-1.15473 0,-0.28812 -0.45457,-0.91308 -1.01015,-1.38879 -1.19365,-1.02202 -1.2923,-1.80839 -0.27582,-2.19845 0.87351,-0.3352 2.68593,-3.27446 2.82168,-4.57602 0.25626,-2.45697 -0.0802,-3.26101 -1.78572,-4.26729 -1.40259,-0.82755 -1.70721,-1.27275 -1.48277,-2.16702 0.17403,-0.69338 -0.0209,-1.37725 -0.50759,-1.78121 -0.53145,-0.44106 -0.79009,-0.47013 -0.79009,-0.0888 0,1.40675 -1.12305,0.31447 -2.51811,-2.44913 -1.71136,-3.3902 -1.86162,-4.32189 -0.76488,-4.74275 1.30048,-0.49904 0.87665,-1.47196 -0.49163,-1.12854 -1.07978,0.271 -1.39231,0.0331 -2.30399,-1.75394 -0.71808,-1.40757 -0.95263,-2.53238 -0.73483,-3.52402 0.23667,-1.07755 0.0509,-1.7453 -0.71404,-2.56634 -0.56867,-0.6104 -1.0428,-1.58435 -1.05362,-2.16434 -0.0108,-0.58 -0.0732,-1.85003 -0.1387,-2.8223 -0.11718,-1.74032 -0.0857,-1.77018 2.02754,-1.92308 1.18062,-0.0854 2.16777,-0.3127 2.19367,-0.50508 0.62986,-4.67804 -0.0658,-6.66321 -2.33509,-6.66321 -3.99383,0 -5.54917,-1.5763 -3.12354,-3.16564 0.63496,-0.41604 1.16906,-1.18085 1.1869,-1.69959 0.0178,-0.51873 0.20482,-1.56818 0.41552,-2.33211 0.33121,-1.20087 0.23719,-1.38896 -0.69432,-1.38896 -0.6845,0 -1.25248,-0.46048 -1.55748,-1.26269 -0.26404,-0.69448 -0.71299,-1.26269 -0.99765,-1.26269 -0.94606,0 -0.53537,-1.34631 0.87138,-2.85654 0.76393,-0.82012 1.81929,-2.27436 2.34523,-3.23164 0.52595,-0.95728 1.48727,-2.21753 2.13626,-2.80055 l 1.17998,-1.06006 -1.30871,-0.59629 c -1.25583,-0.57219 -1.29419,-0.71305 -0.94936,-3.48563 0.40766,-3.27784 0.55838,-3.64696 1.48906,-3.64696 0.36628,0 0.9489,-0.34093 1.29472,-0.75762 0.34583,-0.41668 1.0759,-0.75761 1.62239,-0.75761 0.54649,0 1.40857,-0.51139 1.91574,-1.13642 0.62144,-0.76585 1.46986,-1.13642 2.60182,-1.13642 0.97259,0 1.6816,-0.25663 1.68422,-0.60961 0.003,-0.33528 0.41463,-0.90949 0.91589,-1.27601 0.89995,-0.65806 0.72513,-2.69818 -0.18311,-2.13685 -0.23572,0.14568 -0.68444,-0.68533 -0.99717,-1.84668 -0.31272,-1.16136 -0.89154,-2.43452 -1.28626,-2.82924 -0.95287,-0.95287 -0.90749,-1.32734 0.29248,-2.41329 1.56909,-1.42001 1.31831,-2.46075 -0.50508,-2.09607 -1.75922,0.35185 -1.93401,-0.1463 -0.50508,-1.43947 1.20038,-1.08632 1.29773,-1.76776 0.25254,-1.76776 -1.06111,0 -0.94332,-0.62665 0.32132,-1.70947 0.8095,-0.69311 0.91947,-1.02237 0.44037,-1.31847 -0.7486,-0.46266 -0.24499,-1.51775 0.72444,-1.51775 0.93757,0 1.34446,-1.89202 0.47836,-2.22437 -0.76018,-0.29171 -0.98143,-1.81624 -0.82018,-2.17699 -1.73516,-0.18172 -3.21044,0.18556 -3.83501,0.45543 -0.65975,0.28508 -1.50468,0.0459 -2.0165,-0.57079 -0.48453,-0.58382 -1.26846,-0.91278 -1.74208,-0.73103 -1.28555,0.49331 -3.29233,-1.25455 -3.66322,-3.19059 -0.17953,-0.93708 -0.48189,-1.85928 -0.67193,-2.04931 -0.19005,-0.19004 0.15849,-0.84956 0.77452,-1.46559 0.87209,-0.87209 1.01879,-1.98157 0.66266,-5.01165 -0.25155,-2.14038 -0.64523,-4.19557 -0.87484,-4.56708 -0.53796,-0.87043 -3.70148,-0.079 -5.04178,1.26126 -1.97277,1.97277 -2.80547,1.25442 -3.35285,-2.89241 -0.15557,-1.17857 -0.52222,-3.20487 -0.81478,-4.50289 -0.51719,-2.29463 -0.6176,-2.35111 -3.62288,-2.03795 -1.96697,0.20497 -3.36179,-0.004 -3.83575,-0.57532 -0.56964,-0.68639 -1.41569,-0.71834 -3.59775,-0.13592 -1.56913,0.41883 -2.85297,0.99497 -2.85297,1.28032 0,0.28535 -3.38749,0.50025 -7.52776,0.47756 -7.52157,-0.0412 -7.52862,-0.0429 -8.57143,-2.05949 -0.57401,-1.11002 -1.05344,-2.7574 -1.06539,-3.66083 -0.0199,-1.50187 -0.0866,-1.53104 -0.77897,-0.34045 -0.71256,1.22532 -0.83603,1.23086 -2.09235,0.0939 -0.87553,-0.79234 -1.94015,-1.05639 -3.09284,-0.76709 -2.3683,0.5944 -4.01411,-0.13411 -4.01411,-1.77684 0,-0.95738 -0.50904,-1.35215 -1.74356,-1.35215 -0.95896,0 -1.95172,-0.33681 -2.20614,-0.74846 -0.25442,-0.41166 -0.9966,-0.68369 -1.6493,-0.60451 -1.30755,0.15861 -3.83833,-0.74335 -4.40582,-1.57023 -0.19908,-0.29007 -1.64551,-0.72154 -3.21428,-0.95883 -5.73755,-0.86783 -11.4234,-2.94218 -11.43205,-4.17073 -0.0111,-1.57587 -0.82588,-2.22078 -4.63457,-3.66831 -5.93296,-2.25487 -7.14286,-2.90846 -7.14286,-3.85857 0,-0.62014 -0.49128,-0.78927 -1.42857,-0.49179 -0.87499,0.27772 -1.42857,0.12836 -1.42857,-0.38543 0,-0.46136 -0.45864,-0.66284 -1.01921,-0.44773 -0.56055,0.21511 -1.40055,-0.0684 -1.86664,-0.63 -0.46609,-0.56161 -1.14653,-0.83626 -1.51208,-0.61034 -1.15647,0.71474 -2.74493,-1.23608 -2.74493,-3.3711 0,-1.30515 -0.37245,-2.0554 -1.0204,-2.0554 -0.56123,0 -1.44516,-0.40864 -1.96429,-0.90808 -3.42146,-3.29173 -5.215,-4.15961 -7.72111,-3.7362 -2.68184,0.45309 -2.83961,0.35151 -7.43777,-4.78888 -0.95108,-1.06324 -1.93806,-2.8311 -2.19328,-3.92857 -0.34557,-1.486 -1.36472,-2.43583 -3.99216,-3.72058 -1.94047,-0.94885 -3.52813,-1.99349 -3.52813,-2.32143 0,-0.32794 -0.5625,-0.62241 -1.25,-0.65439 -0.6875,-0.032 -2.69643,-1.77367 -4.46428,-3.87044 -1.76786,-2.09676 -3.60995,-3.83846 -4.09354,-3.87043 -0.48359,-0.032 -1.07756,-0.84828 -1.31994,-1.81399 -0.53672,-2.13847 -5.45421,-4.70447 -9.99692,-5.2165 -1.72599,-0.19454 -3.5041,-0.79464 -3.95135,-1.33354 -0.44725,-0.5389 -1.7414,-0.97982 -2.8759,-0.97982 -1.20373,0 -3.5439,-1.0411 -5.6195,-2.5 -1.95623,-1.375 -4.21096,-2.5 -5.01053,-2.5 -1.01409,0 -1.57305,-0.59407 -1.84823,-1.96429 -0.68705,-3.42115 -4.17278,-6.60714 -7.22874,-6.60714 -1.22267,0 -1.62678,-0.40928 -1.62678,-1.64757 0,-1.70848 -5.59751,-8.35243 -7.0369,-8.35243 -0.43617,0 -0.98345,-0.72322 -1.2162,-1.60715 -0.23275,-0.88392 -2.17032,-2.8282 -4.30571,-4.32059 -2.1354,-1.4924 -4.44216,-3.57411 -5.12615,-4.62603 -1.73501,-2.66831 -5.229,-5.71306 -7.11129,-6.19697 -1.71122,-0.43993 -5.20375,-3.60128 -5.20375,-4.7103 0,-0.375 -0.44838,-0.68182 -0.9964,-0.68182 -0.60557,0 -1.15006,-1.05065 -1.38812,-2.67857 -0.7077,-4.83925 -1.34088,-7.32143 -1.86761,-7.32143 -0.28522,0 -0.88469,-0.80357 -1.33219,-1.78571 -0.4475,-0.98215 -1.29654,-1.78572 -1.88676,-1.78572 -1.09224,0 -1.44093,-0.99108 -2.13608,-6.07143 -0.21502,-1.57143 -0.44494,-3.22828 -0.51094,-3.6819 -0.066,-0.45361 -0.46821,-0.69456 -0.89381,-0.53543 -1.06412,0.39787 -2.55952,-3.06385 -2.55952,-5.92507 0,-1.61945 -0.33546,-2.3576 -1.07143,-2.3576 -0.58929,0 -1.07143,-0.47563 -1.07143,-1.05697 0,-2.79457 -2.30468,-6.61275 -4.67328,-7.74226 -1.35827,-0.64771 -2.46958,-1.50428 -2.46958,-1.9035 0,-0.39921 -0.79348,-0.72584 -1.7633,-0.72584 -1.27391,0 -1.64918,-0.29736 -1.35215,-1.07143 0.26035,-0.67845 -0.01,-1.07143 -0.7367,-1.07143 -0.65003,0 -1.14785,-0.58642 -1.14785,-1.35215 0,-1.23924 -1.28751,-2.21927 -2.91556,-2.21927 -0.36072,0 -0.65586,0.63673 -0.65586,1.41496 0,1.63377 -2.534,2.52168 -5.54892,1.94433 -2.11137,-0.40432 -8.02251,1.89234 -8.02251,3.117 0,1.97656 -3.85285,4.49269 -8.03572,5.24777 -1.47321,0.26594 -2.67857,0.77582 -2.67857,1.13308 0,0.35726 -1.0499,0.84651 -2.33311,1.08725 -4.48797,0.84194 -15.12208,-4.14066 -16.828,-7.88474 -0.44982,-0.98724 -1.63405,-2.16687 -2.63162,-2.62139 -0.99758,-0.45453 -2.5073,-1.97658 -3.35494,-3.38234 -1.62244,-2.69073 -5.42694,-6.39766 -6.63804,-6.46781 -0.39286,-0.0228 -1.47124,-0.83939 -2.3964,-1.81474 -0.92517,-0.97535 -2.14183,-1.77337 -2.7037,-1.77337 -0.56188,0 -1.85008,-0.54285 -2.86268,-1.20633 -1.08674,-0.71206 -2.96504,-1.14001 -4.58425,-1.04447 -1.50874,0.089 -3.32072,-0.12403 -4.02664,-0.47346 -1.67167,-0.82747 -6.55025,-3.03455 -12.3549,-5.58939 -2.55358,-1.12393 -4.8999,-2.44528 -5.21407,-2.93635 -0.31416,-0.49108 -1.04174,-0.89286 -1.61683,-0.89286 -0.5751,0 -1.60377,-0.29489 -2.28594,-0.65532 -4.35132,-2.29902 -8.83001,-4.34468 -9.51207,-4.34468 -2.37076,0 -5.62194,-2.44339 -6.6414,-4.99127 -0.60262,-1.50609 -1.93689,-3.57957 -2.96507,-4.60774 -1.48375,-1.48376 -1.77545,-2.29708 -1.41402,-3.94266 0.36079,-1.64265 0.14913,-2.23718 -1.01905,-2.86237 -0.81093,-0.43399 -1.47441,-0.55563 -1.47441,-0.27028 0,0.28533 -0.47192,-0.10515 -1.04872,-0.86773 -0.57678,-0.76259 -1.05892,-1.98078 -1.07142,-2.70709 -0.0411,-2.38766 -6.45345,-7.18194 -10.5583,-7.89401 -0.49099,-0.0852 -1.33833,-0.76428 -1.88297,-1.50912 -0.77148,-1.05506 -1.98776,-1.38067 -5.50538,-1.47385 -2.61988,-0.0694 -4.62801,-0.45827 -4.78407,-0.92645 -0.14792,-0.44377 -1.55525,-1.01254 -3.12739,-1.26393 -1.57214,-0.2514 -3.02601,-0.89374 -3.23081,-1.42744 -0.20479,-0.53369 -0.80113,-0.97035 -1.32521,-0.97035 -1.23692,0 -1.796,-0.95868 -2.13884,-3.66758 -0.31834,-2.51539 -1.48293,-4.18956 -2.91435,-4.18956 -0.54118,0 -0.98397,-0.44466 -0.98397,-0.98812 0,-1.17759 -2.08468,-1.87512 -6.31783,-2.11393 -2.04818,-0.11555 -3.33544,-0.58947 -3.78549,-1.39366 -0.37508,-0.67022 -1.15265,-1.21858 -1.72796,-1.21858 -0.5753,0 -2.02642,-1.04464 -3.22472,-2.32142 -1.60212,-1.70707 -1.97088,-1.8961 -1.39337,-0.71429 1.06515,2.17974 0.29137,2.0295 -4.289,-0.83275 -8.34048,-5.21193 -9.67116,-5.97665 -11.22592,-6.45137 -2.10572,-0.64295 -2.29567,-3.96588 -0.2267,-3.96588 1.57129,0 2.70882,-2.62503 1.61257,-3.72127 -0.64178,-0.64179 -3.13484,-1.09958 -6.71548,-1.23313 -1.29661,-0.0484 -3.14684,-5.18318 -2.33877,-6.49065 0.2372,-0.38379 -0.18851,-0.69781 -0.946,-0.69781 -1.91392,0 -2.62835,-4.5084 -1.17583,-7.42004 0.58331,-1.16926 0.77787,-2.30844 0.43237,-2.53151 -0.3455,-0.22308 -0.85242,-1.20916 -1.12649,-2.1913 -0.85344,-3.05833 -2.03849,-5 -3.05164,-5 -0.53523,0 -1.15901,-0.5625 -1.38617,-1.25 -0.22717,-0.6875 -1.37941,-3.25893 -2.56054,-5.71429 -1.50874,-3.13639 -2.54776,-4.46429 -3.49313,-4.46429 -0.94309,0 -1.34561,-0.51131 -1.34561,-1.70929 0,-0.94011 -0.48725,-1.89626 -1.08276,-2.12478 -0.82648,-0.31715 -0.97688,-1.07765 -0.63543,-3.21297 0.35716,-2.23353 0.12496,-3.23351 -1.15183,-4.96046 -0.91003,-1.23089 -2.02134,-2.00097 -2.57886,-1.78703 -0.5796,0.22242 -0.9797,-0.0928 -0.9797,-0.7719 0,-0.63132 -0.41445,-1.14785 -0.92101,-1.14785 -0.53126,0 -0.9091,-0.81572 -0.89286,-1.92759 0.024,-1.64511 -0.36436,-2.02186 -2.65041,-2.57095 -1.47322,-0.35385 -2.67857,-0.93288 -2.67857,-1.2867 0,-0.35383 -0.46194,-0.64333 -1.02652,-0.64333 -0.76829,0 -0.92749,-0.6103 -0.63284,-2.42602 0.32675,-2.0135 0.14313,-2.50553 -1.07988,-2.8937 -0.94608,-0.30028 -1.32406,-0.85733 -1.0559,-1.55615 0.29751,-0.7753 0.0301,-1.02165 -0.92931,-0.85629 -0.74084,0.12769 -1.34698,-0.10766 -1.6887,-1.06566 -0.53987,0.0225 -0.77598,-0.0134 -1.56675,-0.72906 -0.53877,-0.48758 -0.93178,-1.14355 -0.87335,-1.45771 0.0584,-0.31416 -0.29153,-0.50442 -0.77767,-0.4228 -0.52419,0.088 -0.88388,-0.1689 -0.88388,-0.63134 0,-0.83585 -0.35189,-0.93193 -2.90205,-0.79242 -1.3377,0.0732 -1.73039,-0.14975 -2.13407,-1.21152 -0.27209,-0.71566 -0.80478,-1.3012 -1.18376,-1.3012 -0.37897,0 -0.94211,-0.55541 -1.2514,-1.23425 -0.5028,-1.10352 -0.73424,-1.18497 -2.18484,-0.76894 -1.69199,0.48525 -3.98094,0.17427 -3.98094,-0.54087 0,-0.22783 -0.35744,-0.77168 -0.7943,-1.20855 -0.70691,-0.7069 -0.71254,-0.95819 -0.0512,-2.28389 0.4909,-0.98403 0.55997,-1.55064 0.2035,-1.66946 -0.34305,-0.11435 -0.21164,-0.81339 0.36075,-1.91907 1.31847,-2.54684 1.46708,-4.7896 0.42297,-6.38312 -0.49069,-0.74889 -0.83409,-1.715 -0.76311,-2.14691 0.071,-0.43191 -0.55502,-1.23987 -1.3911,-1.79545 -0.83608,-0.55559 -1.53041,-1.23744 -1.54297,-1.51523 -0.0126,-0.27779 -0.85416,-1.03619 -1.87022,-1.68531 -1.50699,-0.96276 -1.94512,-1.05567 -2.37774,-0.50421 -0.29168,0.37182 -1.38265,1.12507 -2.42437,1.6739 -1.30388,0.68695 -1.89404,1.34079 -1.89404,2.09842 0,0.84641 -0.22983,1.04044 -0.99532,0.84027 -0.66827,-0.17476 -1.59264,0.29715 -2.81327,1.43624 -0.99987,0.93309 -2.02533,1.64104 -2.2788,1.57322 -0.25346,-0.0678 -0.60831,0.50039 -0.78855,1.26269 -0.18023,0.7623 -0.78119,1.88582 -1.33546,2.49672 -0.59392,0.65459 -0.87696,1.4516 -0.68925,1.94078 0.21885,0.57031 -0.007,0.91522 -0.72228,1.10223 -0.6179,0.16158 -0.93303,0.55304 -0.77555,0.96341 0.14589,0.38018 0.0575,0.69124 -0.19641,0.69124 -0.25392,0 -0.76081,0.62414 -1.12643,1.38698 -0.74352,1.5513 -3.62976,3.14423 -5.03244,2.77742 -1.34431,-0.35155 -5.77855,4.61813 -6.42022,7.19547 -0.48568,1.95073 -0.41966,5.33092 0.20647,10.57204 0.32809,2.74627 0.81882,3.88676 2.58696,6.0123 0.85264,1.02498 1.18765,2.05791 1.18765,3.66181 0,1.44643 0.22259,2.23681 0.63135,2.24182 0.39099,0.005 0.43907,0.149 0.12627,0.37881 -0.27779,0.20409 -0.54699,1.24125 -0.59821,2.30481 -0.0512,1.06356 -0.52879,2.76819 -1.06128,3.78807 -0.53248,1.01988 -1.36614,2.60624 -1.85257,3.52524 -0.82166,1.55234 -0.82544,1.73608 -0.0533,2.58925 0.68526,0.75719 0.7076,0.96572 0.12734,1.18839 -0.97756,0.37513 -1.50036,5.18278 -0.7095,6.52453 0.4828,0.81911 0.47872,1.08663 -0.0194,1.26699 -0.34724,0.12575 -0.63857,0.60744 -0.6474,1.07043 -0.009,0.46299 -0.34977,1.28298 -0.75762,1.82221 -0.40785,0.53923 -0.74155,1.38641 -0.74155,1.88263 0,0.49621 -1.37995,3.15743 -3.06655,5.91382 -1.68661,2.75639 -3.18574,5.77304 -3.33141,6.70367 -0.14568,0.93063 -0.57669,2.26027 -0.9578,2.95475 -0.38111,0.69448 -1.0274,2.39911 -1.43619,3.78807 -2.76615,9.39858 -4.30022,12.7384 -7.88787,17.17259 -1.5733,1.94455 -2.95283,3.77055 -3.06562,4.0578 -0.11279,0.28725 -1.21676,2.01972 -2.45325,3.84994 -2.12509,3.14549 -2.32716,3.30503 -3.69075,2.91396 -0.79341,-0.22755 -1.77046,-0.28789 -2.17124,-0.1341 -0.50508,0.19382 -0.72867,-0.0779 -0.72867,-0.88559 0,-1.58725 -0.79856,-0.62328 -1.18128,1.42599 -0.23953,1.28256 -0.0993,1.7415 0.65574,2.14557 0.71254,0.38134 1.15578,0.31872 1.71708,-0.24258 0.80804,-0.80805 1.83892,-1.01206 1.83892,-0.36393 0,0.21599 -0.32977,0.86351 -0.73282,1.43895 -0.40305,0.57543 -1.45431,2.38746 -2.33614,4.02672 -0.88182,1.63926 -2.14304,3.39718 -2.80271,3.90649 -0.65967,0.5093 -1.199399,1.16574 -1.199399,1.45874 0,0.29301 -0.909138,1.51904 -2.020305,2.72451 -1.111168,1.20547 -2.020306,2.62359 -2.020306,3.15136 0,0.52778 -0.35673,1.25566 -0.792727,1.61751 -0.436002,0.36184 -0.686752,1.06317 -0.55722,1.5585 0.129532,0.49532 -0.08195,1.16406 -0.469958,1.48609 -0.427441,0.35476 -0.705451,1.5563 -0.705451,3.04902 0,1.35495 -0.197747,2.46354 -0.439436,2.46354 -0.241689,0 -0.724588,1.01846 -1.073105,2.26325 -0.348518,1.24478 -0.946266,2.52268 -1.328331,2.83976 -0.382065,0.31708 -0.694662,0.89717 -0.694662,1.28908 0,0.39191 -0.56821,1.83387 -1.26269,3.20436 -0.69448,1.37049 -1.262691,2.92609 -1.262691,3.4569 0,0.5308 -0.326315,1.23591 -0.725148,1.56692 -0.398833,0.331 -0.87312,1.27553 -1.053978,2.09895 -0.180853,0.82343 -0.990955,2.22208 -1.800228,3.10812 -0.809274,0.88605 -1.471409,1.9084 -1.471409,2.27189 0,0.3635 -0.336507,0.79003 -0.747795,0.94786 -0.411289,0.15783 -0.73873,0.77573 -0.727644,1.37311 0.0532,2.86651 -0.735057,9.38273 -1.353341,11.18768 -0.380626,1.11117 -0.695359,2.73115 -0.699405,3.59996 -0.004,0.86881 -0.362887,1.87472 -0.797434,2.23536 -0.494197,0.41015 -0.68204,1.08618 -0.501586,1.80516 0.37666,1.50075 -1.110209,4.58377 -2.36946,4.91308 -0.542406,0.14184 -0.876075,0.44365 -0.741482,0.67069 0.134588,0.22704 0.04323,1.86064 -0.20298,3.63021 -0.269675,1.93812 -0.258119,4.39451 0.02909,6.1778 0.515158,3.19882 -0.184772,6.66923 -2.740049,13.58577 -2.61332,7.07367 -3.872743,12.04318 -3.31582,13.08379 0.291974,0.54556 0.530865,2.26493 0.530865,3.82083 0,1.7156 0.310925,3.30342 0.790071,4.03469 1.179509,1.80016 1.548372,6.45217 0.57561,7.25948 -0.855276,0.70982 -3.024493,1.26778 -4.774946,1.22819 -0.693323,-0.0157 -1.136421,0.27486 -1.136421,0.74514 0,1.04491 1.989576,4.19436 3.435761,5.43871 1.057837,0.91021 1.141745,1.28216 0.826072,3.66181 -0.23034,1.73623 -0.589959,2.64869 -1.043927,2.64869 -0.484075,0 -0.692545,0.68416 -0.692545,2.27284 0,1.91309 0.155175,2.27284 0.980343,2.27284 1.465559,0 1.705521,0.73923 2.12627,6.55014 0.358392,4.94972 0.913294,7.36243 2.268828,9.86484 0.528855,0.97631 1.185419,4.91631 1.514986,9.09138 0.08771,1.11116 0.359978,3.27036 0.605031,4.79822 0.68897,4.29557 0.133022,11.88657 -0.924764,12.62691 -0.198455,0.13889 -0.730795,1.38896 -1.182985,2.77792 -0.750806,2.30622 -0.754619,2.91986 -0.04394,7.07106 1.545938,9.02993 1.649524,10.64241 0.944503,14.70233 -0.445381,2.56478 -0.512506,4.21032 -0.195878,4.80194 0.335678,0.62723 0.234769,1.41787 -0.332906,2.60829 -0.77007,1.61486 -0.756544,1.8284 0.247416,3.90636 1.088803,2.25357 1.597304,5.44284 2.696572,16.91257 1.140735,11.90241 0.271277,24.49771 -1.960817,28.40518 -0.672731,1.17769 -1.807324,3.30431 -2.521326,4.72585 -0.714001,1.42154 -2.410461,3.81287 -3.769914,5.31401 -3.130498,3.45679 -3.165753,4.58534 -0.339325,10.86237 1.911208,4.24451 2.133881,5.14466 2.146574,8.67792 0.01278,3.5521 -0.10292,4.03056 -1.169121,4.83575 -1.119986,0.84575 -1.148846,1.00854 -0.539502,3.04233 0.471969,1.57528 0.492348,2.24234 0.07636,2.49942 -0.312077,0.19289 -0.793354,1.75362 -1.069494,3.46831 -0.615602,3.82257 -1.127629,4.85595 -3.761682,7.5921 -1.55661,1.61695 -2.451772,2.14658 -3.628069,2.14658 -0.858872,0 -1.809931,0.24834 -2.113456,0.55184 -0.399107,0.39911 -0.856105,0.38906 -1.650948,-0.0364 -1.082596,-0.57938 -1.072403,-0.60852 0.679196,-1.94086 0.978055,-0.74393 1.894496,-1.63362 2.036538,-1.97712 0.142043,-0.34345 -0.839462,0.22476 -2.181116,1.26269 -1.341654,1.03798 -2.321002,2.09278 -2.176328,2.34406 0.144669,0.25127 0.0025,0.29587 -0.315835,0.0991 -0.94323,-0.58295 -5.005376,2.58185 -6.426565,5.00693 -1.433593,2.44628 -2.957584,8.08263 -2.420425,8.95177 0.191029,0.30905 0.09819,0.39517 -0.216464,0.20066 -0.341919,-0.21127 -0.80906,0.57352 -1.231252,2.06854 l -0.680289,2.40912 z M 708.16697,77.006808 c 0.196,-0.236171 0.53398,-0.320741 0.90734,-0.227034 0.77307,0.194028 1.24219,-0.29081 1.47329,-1.522666 0.20085,-1.070663 0.651,-1.662007 1.26516,-1.662007 0.43856,0 0.54267,-0.637679 0.1443,-0.883883 -0.13889,-0.08584 -0.25253,-0.376656 -0.25253,-0.64625 0,-0.35449 0.17475,-0.490172 0.63134,-0.490172 0.52972,0 0.63135,-0.119054 0.63135,-0.739575 0,-0.406768 -0.14206,-0.894546 -0.31568,-1.083952 -0.17362,-0.189409 -0.44371,-0.566862 -0.60021,-0.838788 -0.17181,-0.298548 -0.54698,-0.490467 -0.94701,-0.484456 -0.73804,0.01109 -0.85904,-0.408665 -0.28368,-0.98403 0.42852,-0.428515 0.50864,-1.172499 0.12627,-1.172499 -0.13889,0 -0.25254,-0.340927 -0.25254,-0.757615 0,-0.416688 0.11365,-0.757614 0.25254,-0.757614 0.1389,0 0.25254,-0.355705 0.25254,-0.790457 0,-0.788647 -0.003,-0.790162 -1.14809,-0.661052 -0.78667,0.08867 -1.25799,0.0195 -1.49719,-0.219695 -0.19201,-0.192005 -0.69815,-0.349101 -1.12475,-0.349101 -0.42661,0 -0.77566,-0.113643 -0.77566,-0.252539 0,-0.430984 -0.76414,-0.277145 -0.94081,0.189404 -0.21477,0.567181 -0.7153,1.073287 -1.06145,1.073287 -0.14882,0 -0.27058,0.113642 -0.27058,0.252538 0,0.138896 0.11807,0.252538 0.26238,0.252538 0.1443,0 0.0307,0.248713 -0.25254,0.552695 -0.38597,0.414292 -0.51492,0.893109 -0.51492,1.912075 0,1.365666 -0.36192,2.086546 -0.94927,1.890761 -0.17238,-0.05746 -0.31342,-0.265466 -0.31342,-0.462233 0,-0.196771 -0.11364,-0.357764 -0.25254,-0.357764 -0.13889,0 -0.25253,-0.397747 -0.25253,-0.883883 0,-0.486136 0.11364,-0.883884 0.25253,-0.883884 0.1389,0 0.25254,-0.340926 0.25254,-0.757614 0,-0.675949 -0.0829,-0.757614 -0.76909,-0.757614 -1.23496,0 -2.00883,0.968443 -2.00883,2.513903 0,0.822661 0.10739,1.274169 0.30305,1.274169 0.2357,0 0.2357,0.06734 0,0.303045 -0.36641,0.366413 -0.40429,1.464722 -0.0505,1.464722 0.1389,0 0.25254,0.217814 0.25254,0.484032 0,0.266215 0.14205,0.541351 0.31567,0.611407 0.25254,0.101902 0.25254,0.131363 0,0.147313 -0.42676,0.02695 -0.39978,0.729517 0.0451,1.174399 0.19842,0.198421 0.70981,0.360768 1.13642,0.360768 0.52111,0 0.77565,0.124312 0.77565,0.378807 0,0.208344 0.11365,0.378807 0.25254,0.378807 0.1389,0 0.25254,-0.284105 0.25254,-0.631345 0,-0.34724 -0.11364,-0.631345 -0.25254,-0.631345 -0.13889,0 -0.25254,-0.170463 -0.25254,-0.378807 0,-0.208344 0.11365,-0.378808 0.25254,-0.378808 0.1389,0 0.25254,-0.507824 0.25254,-1.128497 0,-0.899351 0.0769,-1.098977 0.37881,-0.983133 0.27208,0.104409 0.3788,0.530035 0.3788,1.510731 0,1.193071 0.30155,2.209805 0.7774,2.621204 0.37422,0.323535 0.99037,1.918813 0.99037,2.564182 0,0.550455 0.1183,0.718814 0.50508,0.718814 0.27779,0 0.50507,0.113642 0.50507,0.252538 0,0.392424 1.16379,0.29719 1.5132,-0.123827 z m -9.29138,-7.755362 c -0.16668,-0.166676 -0.30305,-0.629361 -0.30305,-1.028192 0,-0.72736 -0.56089,-1.559223 -0.85382,-1.266297 -0.27585,0.275853 -0.16682,1.98095 0.14672,2.294489 0.16667,0.166675 0.53033,0.303045 0.80812,0.303045 0.39284,0 0.43773,-0.06734 0.20203,-0.303045 z m -5.35381,-4.747717 c 0,-0.335833 1.18785,-0.325401 1.39654,0.01227 0.2345,0.379428 0.8763,-0.207076 0.8763,-0.800799 0,-0.260786 0.11365,-0.474155 0.25254,-0.474155 0.1389,0 0.25254,-0.15721 0.25254,-0.349354 0,-0.192143 0.22728,-0.408788 0.50508,-0.481433 0.42975,-0.112382 0.50507,-0.344465 0.50507,-1.556161 0,-1.789336 -0.60519,-2.503276 -2.20971,-2.606782 -0.60911,-0.03929 -1.07328,0.04262 -1.07328,0.189404 0,0.142252 -0.39775,0.25864 -0.88389,0.25864 -0.48613,0 -0.88388,-0.113643 -0.88388,-0.252539 0,-0.471923 -0.80421,-0.255169 -0.93698,0.252539 -0.1332,0.509354 -0.83079,0.721402 -0.83079,0.252538 0,-0.138896 -0.34092,-0.252538 -0.75761,-0.252538 -0.41669,0 -0.75762,0.113642 -0.75762,0.252538 0,0.138896 -0.17046,0.252538 -0.3788,0.252538 -0.25341,0 -0.37881,0.253419 -0.37881,0.765539 0,0.447518 0.15737,0.825928 0.37881,0.910902 0.20834,0.07995 0.3788,0.360488 0.3788,0.623421 0,0.321496 0.18609,0.484585 0.56821,0.497995 0.31252,0.01096 0.42616,0.07726 0.25254,0.147313 -0.17362,0.07006 -0.31567,0.458834 -0.31567,0.863946 0,0.612566 0.10378,0.73657 0.61644,0.73657 0.33904,0 0.68668,0.113642 0.77252,0.252538 0.0858,0.138896 0.43348,0.252539 0.77252,0.252539 0.33904,0 0.61644,0.113642 0.61644,0.252538 0,0.138896 0.2841,0.252538 0.63134,0.252538 0.34724,0 0.63135,-0.113642 0.63135,-0.252545 z M 688.8934,47.773077 c 0.28438,-0.449621 0.31846,-1.685189 0.051,-1.850461 -0.12398,-0.07662 -0.45168,-0.0675 -0.72823,0.02028 -0.37021,0.117501 -0.50282,0.382649 -0.50282,1.005408 0,0.998573 0.74204,1.517231 1.18,0.824777 v -3e-6 z"
       inkscape:connector-curvature="0"
       sodipodi:nodetypes="cssssssscsssssssssssscsssssssssssscsscsssssssssssssssssscsssssssssssssssssssssssssssssscscssssccssssscscssssssssssscsssssscsssssssssscccccsscssccssscsscssscsssssssssssssscsssccsssssscccccsscssssssscssscssscccssssssssssccsscsssscssscsssscsssssssssssscscsssssssssscscssssssssssssssssssssssssssssscsssssssssssscssscsscsssssssscscsssssssssssssssssscssscsscsssssscsscssssssscsccscsscsscsssscscscsscsccsccsssssssscscsssssccssscsssssscsscsssssssscssssssssscsssssscssccssssssscsscssssssscsssssssssssscscssscccccscsccccccsssssssscsssssscssssssscsssssssssssssssssssssssscssssscscsscssssssssssssssssssscsccsscssscscccsc" />
  </g>
</svg>
